<svg xmlns="http://www.w3.org/2000/svg" viewBox="0 0 598.722 98.084"><defs><style>.cls-1{fill:#f5f7f6;}</style></defs><g id="Layer_2" data-name="Layer 2"><g id="Layer_1-2" data-name="Layer 1"><polygon class="cls-1" points="101 24.253 93.233 41.483 8.303 41.483 16.635 24.075 101 24.253"/><polygon class="cls-1" points="17.42 56.763 8.332 56.749 0 74.158 11.343 74.182 17.42 56.763"/><polygon class="cls-1" points="44.941 56.822 39.66 74.158 84.93 74.158 92.697 56.928 44.941 56.822"/><polygon class="cls-1" points="45.195 41.498 57.85 0 37.763 6.963 26.823 41.498 45.195 41.498"/><polygon class="cls-1" points="25.306 46.23 8.898 98.084 29.699 92.311 43.704 46.23 25.306 46.23"/><polygon class="cls-1" points="75.007 52.307 91.269 0 71.182 6.963 56.48 52.307 75.007 52.307"/><polygon class="cls-1" points="55.368 56.883 42.316 98.084 63.118 92.311 73.922 56.883 55.368 56.883"/><path class="cls-1" d="M210.264,61.032c0-17.579,12.622-30.4,30.133-30.4,19.217,0,31.952,15.148,29.11,34.386h-43.1c1.023,9.619,5.8,14.926,13.872,14.926,6.937,0,11.6-3.317,13.418-9.177h15.692c-3.411,13.378-13.986,21.007-28.769,21.007C222.431,91.769,210.264,79.5,210.264,61.032Zm16.374-5.749h26.153c-.454-8.182-5.23-13.378-12.735-13.378C232.665,41.905,228,46.549,226.638,55.283Z"/><path class="cls-1" d="M316.241,83.477c-3.98,5.528-10.007,8.4-18.308,8.4-12.621,0-21.036-7.186-21.036-18.242,0-11.5,9.552-17.691,27.29-17.691a81.913,81.913,0,0,1,10.121.664V53.072c0-6.634-3.867-10.5-10.462-10.5-6.822,0-10.916,3.87-11.484,10.5H278.148c.91-13.6,11.03-22.445,25.7-22.445,15.92,0,25.244,8.514,25.244,23V90.774H316.241Zm-14.9-2.212c8.073,0,12.963-4.312,12.963-11.167V65.9a59.484,59.484,0,0,0-9.1-.774c-8.983,0-13.418,2.764-13.418,8.071C291.793,78.17,295.432,81.265,301.345,81.265Z"/><path class="cls-1" d="M342.734,90.774V11.389h15.92V90.774Z"/><path class="cls-1" d="M502.41,90.774V11.389h17.284V90.774Z"/><polygon class="cls-1" points="411.188 44.747 411.188 31.733 393.79 31.733 393.79 14.264 378.098 14.264 378.098 31.733 365.817 31.733 365.817 44.747 411.188 44.747"/><path class="cls-1" d="M393.79,68.108V47.574H378.1V71.646c0,13.268,7.846,20.233,20.354,20.233a26.139,26.139,0,0,0,12.167-2.653V75.848a16.866,16.866,0,0,1-7.96,1.879C396.974,77.727,393.79,74.963,393.79,68.108Z"/><rect class="cls-1" x="420.852" y="11.389" width="15.721" height="79.384"/><path class="cls-1" d="M454.056,30.627a19.976,19.976,0,0,0-14.575,5.69V48.632a10.654,10.654,0,0,1,8.775-4.405c7.164,0,10.689,4.865,10.689,13.6V90.774h15.692V52.629C474.637,38.367,466.223,30.627,454.056,30.627Z"/><polygon class="cls-1" points="146.333 42.679 146.133 42.679 146.133 11.389 128.849 11.389 128.849 90.774 146.133 90.774 146.133 57.163 146.333 57.163 146.333 42.679"/><rect class="cls-1" x="149.241" y="42.679" width="29.292" height="14.484"/><polygon class="cls-1" points="181.497 11.389 181.497 42.679 181.441 42.679 181.441 57.163 181.497 57.163 181.497 90.774 198.781 90.774 198.781 11.389 181.497 11.389"/><rect class="cls-1" x="555.626" y="29.233" width="17.284" height="61.541"/><rect class="cls-1" x="529.928" y="11.389" width="68.795" height="15.015"/></g></g></svg>